<svg width="1280" height="720" viewBox="0 0 1280 720" fill="none" xmlns="http://www.w3.org/2000/svg">
  <rect width="1280" height="720" rx="48" fill="#2B2B2B"/>
  <circle cx="1060" cy="90" r="260" fill="#7B4BFF" fill-opacity="0.28"/>
  <circle cx="260" cy="620" r="260" fill="#FFB3C1" fill-opacity="0.28"/>
  <rect x="86" y="74" width="1108" height="572" rx="34" fill="#FFFDFC" fill-opacity="0.96"/>
  <rect x="122" y="112" width="1036" height="68" rx="22" fill="#FFE8E2"/>
  <text x="154" y="155" fill="#2B2B2B" font-family="Inter, Arial, sans-serif" font-size="26" font-weight="700">Painel Bellory</text>
  <rect x="846" y="130" width="132" height="18" rx="9" fill="#E26D7C" fill-opacity="0.62"/>
  <rect x="996" y="130" width="110" height="18" rx="9" fill="#7B4BFF" fill-opacity="0.42"/>
  <rect x="122" y="214" width="244" height="122" rx="24" fill="#FFFFFF" stroke="#F1D8D1" stroke-width="2"/>
  <rect x="398" y="214" width="244" height="122" rx="24" fill="#FFFFFF" stroke="#F1D8D1" stroke-width="2"/>
  <rect x="674" y="214" width="244" height="122" rx="24" fill="#FFFFFF" stroke="#F1D8D1" stroke-width="2"/>
  <rect x="950" y="214" width="208" height="122" rx="24" fill="#FFFFFF" stroke="#F1D8D1" stroke-width="2"/>
  <rect x="154" y="252" width="120" height="20" rx="10" fill="#E26D7C"/>
  <rect x="430" y="252" width="112" height="20" rx="10" fill="#7B4BFF"/>
  <rect x="706" y="252" width="104" height="20" rx="10" fill="#E26D7C"/>
  <rect x="982" y="252" width="92" height="20" rx="10" fill="#7B4BFF"/>
  <rect x="122" y="376" width="648" height="214" rx="28" fill="#FFFFFF" stroke="#F1D8D1" stroke-width="2"/>
  <rect x="812" y="376" width="346" height="214" rx="28" fill="#2B2B2B"/>
  <rect x="154" y="418" width="584" height="42" rx="18" fill="#FFF4F1"/>
  <rect x="154" y="478" width="510" height="42" rx="18" fill="#FFE8E2"/>
  <rect x="154" y="538" width="548" height="42" rx="18" fill="#FFF4F1"/>
  <rect x="852" y="418" width="236" height="42" rx="18" fill="#E26D7C"/>
  <rect x="852" y="480" width="190" height="42" rx="18" fill="#FFFFFF" fill-opacity="0.14"/>
  <circle cx="640" cy="360" r="58" fill="#FFFFFF" fill-opacity="0.92"/>
  <path d="M626 334L674 360L626 386V334Z" fill="#E26D7C"/>
</svg>
